HIERARCHY
ROOT hip
{
	OFFSET 0.000000 0.000000 0.000000 
	CHANNELS 6 Xposition Yposition Zposition Xrotation Zrotation Yrotation
	JOINT abdomen
	{
		OFFSET 0.000000 3.402643 0.000000 
		CHANNELS 3 Xrotation Zrotation Yrotation
		JOINT chest
		{
			OFFSET 0.000000 8.438565 -0.680529 
			CHANNELS 3 Xrotation Zrotation Yrotation
			JOINT neck
			{
				OFFSET 0.000000 10.207942 -0.272212 
				CHANNELS 3 Xrotation Zrotation Yrotation
				JOINT head
				{
					OFFSET 0.000000 3.130431 0.000000 
					CHANNELS 3 Xrotation Zrotation Yrotation
					End Site
					{
						OFFSET 0.000000 3.130435 0.000000 
					}
				}
			}
			JOINT lCollar
			{
				OFFSET 3.470700 6.669187 -0.816635 
				CHANNELS 3 Yrotation Zrotation Xrotation
				JOINT lShldr
				{
					OFFSET 3.198488 0.000000 0.000000 
					CHANNELS 3 Zrotation Yrotation Xrotation
					JOINT lForeArm
					{
						OFFSET 10.139888 0.000000 0.000000 
						CHANNELS 3 Yrotation Zrotation Xrotation
						JOINT lHand
						{
							OFFSET 8.370511 0.000000 0.000000 
							CHANNELS 3 Zrotation Yrotation Xrotation
							End Site
							{
								OFFSET 4.083176 0.000000 0.000000 
							}
						}
					}
				}
			}
			JOINT rCollar
			{
				OFFSET -3.470700 6.669187 -0.816635 
				CHANNELS 3 Yrotation Zrotation Xrotation
				JOINT rShldr
				{
					OFFSET -3.198488 0.000000 0.000000 
					CHANNELS 3 Zrotation Yrotation Xrotation
					JOINT rForeArm
					{
						OFFSET -10.139888 0.000000 0.000000 
						CHANNELS 3 Yrotation Zrotation Xrotation
						JOINT rHand
						{
							OFFSET -8.370511 0.000000 0.000000 
							CHANNELS 3 Zrotation Yrotation Xrotation
							End Site
							{
								OFFSET -4.083176 0.000000 0.000000 
							}
						}
					}
				}
			}
		}
	}
	JOINT lThigh
	{
		OFFSET 5.308129 -1.633274 1.361059 
		CHANNELS 3 Xrotation Zrotation Yrotation
		JOINT lShin
		{
			OFFSET -2.041588 -20.007561 0.000000 
			CHANNELS 3 Xrotation Zrotation Yrotation
			JOINT lFoot
			{
				OFFSET 0.000000 -19.190928 -1.224953 
				CHANNELS 3 Xrotation Yrotation Zrotation
				End Site
				{
					OFFSET 0.000000 -2.449906 4.627600 
				}
			}
		}
	}
	JOINT rThigh
	{
		OFFSET -5.308129 -1.633274 1.361059 
		CHANNELS 3 Xrotation Zrotation Yrotation
		JOINT rShin
		{
			OFFSET 2.041588 -20.007561 0.000000 
			CHANNELS 3 Xrotation Zrotation Yrotation
			JOINT rFoot
			{
				OFFSET 0.000000 -19.190928 -1.224953 
				CHANNELS 3 Xrotation Yrotation Zrotation
				End Site
				{
					OFFSET 0.000000 -2.449906 4.627600 
				}
			}
		}
	}
}
MOTION
Frames: 15
Frame Time: 0.033333
7.161221 45.968887 -13.413102 8.085938 -9.931641 89.072289 10.370376 -8.712459 -6.345483 -4.306639 4.589844 6.221484 -8.327512 7.680188 17.595510 -6.015625 1.386719 19.550785 2.000000 -2.000000 0.000000 -71.845703 9.179688 24.913670 -8.766709 -1.178169 2.480435 6.214793 -11.746244 3.951091 -2.000000 2.000000 0.000000 95.673828 46.132813 12.216798 -2.442952 1.025140 2.422113 44.344410 8.056839 108.641685 -33.776272 -5.204856 -3.577574 39.379436 -3.046676 -0.889713 -16.112612 -0.602762 -1.501558 -47.456528 -9.638700 12.232479 56.551815 1.939109 -4.715311 -7.745076 0.528833 -7.131665 
7.166382 45.764137 -13.484079 8.251953 -11.669923 88.916016 10.370376 -8.712459 -6.345483 -5.361327 4.433594 6.133567 -8.409456 7.534756 17.268829 -6.445313 0.937500 19.365238 2.000000 -2.000000 0.000000 -73.144531 10.087891 25.089602 -10.407125 -1.167833 2.489592 7.735932 -9.197747 -0.053246 -2.000000 2.000000 0.000000 96.044922 45.634766 12.575342 -2.442952 1.025140 2.422113 43.784821 8.529760 108.317795 -36.240437 -5.496326 -3.838090 40.735992 -2.968379 -0.417498 -16.806219 -0.668894 -1.734215 -49.223675 -9.502339 12.472497 56.082157 1.986399 -4.481975 -7.501139 0.413654 -4.224035 
7.146374 45.531460 -13.394604 7.792969 -12.607422 89.421715 10.370376 -8.712459 -6.345483 -5.283203 4.638672 6.114071 -8.460679 7.423823 16.977949 -7.294922 1.259766 18.935549 2.000000 -2.000000 0.000000 -73.417969 10.673829 25.654297 -11.286047 -1.158085 2.489003 7.389454 -4.512490 -5.166529 -2.000000 2.000000 0.000000 95.625000 46.054688 14.873048 -2.442952 1.025140 2.422113 43.091335 11.431883 105.794556 -38.056911 -5.105861 -3.390080 42.411755 -2.880226 -0.060325 -17.444767 -0.573519 -1.832502 -49.905163 -8.682311 12.366203 56.386620 1.957044 -6.230860 -8.872192 0.299624 -3.399306 
7.076656 45.386860 -13.329292 7.158204 -13.447266 90.261398 10.370376 -8.712459 -6.345483 -4.794922 5.224610 6.083985 -8.563280 7.083784 16.126207 -8.115234 0.576172 18.271484 2.000000 -2.000000 0.000000 -73.007820 10.664063 26.367189 -12.828635 -1.108170 2.505550 6.464056 -0.260307 -15.180608 -2.000000 2.000000 0.000000 96.093750 46.962891 12.177734 -2.442952 1.025140 2.422113 43.727909 10.428315 107.807487 -39.505016 -4.657202 -3.314781 43.465172 -2.831978 -1.330379 -17.806805 -0.601759 -1.464341 -50.432274 -8.232790 11.851917 57.388439 1.900726 -8.255989 -10.132957 -0.009176 -3.343901 
7.007443 45.251957 -13.392717 7.431641 -14.951173 90.378342 10.370376 -8.712459 -6.345483 -5.195313 4.941407 6.074219 -8.645705 6.794934 15.494040 -8.876954 -0.068359 17.792971 2.000000 -2.000000 0.000000 -73.320313 10.234375 25.109161 -11.197960 -1.138002 2.497571 5.720940 0.145896 -18.261873 -2.000000 2.000000 0.000000 96.542969 47.070305 11.162109 -2.442952 1.025140 2.422113 44.854500 11.212125 108.603638 -41.409901 -5.018536 -3.345284 44.128674 -2.822219 -1.965791 -18.062632 -0.640097 -1.344616 -51.863899 -8.671685 11.565622 57.840324 1.817577 -8.772827 -11.223781 -0.054499 -2.901842 
7.054508 45.098179 -13.691594 8.896484 -16.268766 89.811707 10.370376 -8.712459 -6.345483 -5.712893 3.974609 6.171875 -8.774649 6.340635 14.610087 -9.150392 -1.367188 17.226564 2.000000 -2.000000 0.000000 -73.828125 10.556643 25.167805 -10.407150 -1.148337 2.488414 5.416246 0.691318 -18.146345 -2.000000 2.000000 0.000000 96.865234 46.181641 12.175016 -2.442952 1.025140 2.422113 45.394051 12.499116 110.119614 -43.089424 -7.049932 -3.476044 44.476257 -2.766145 0.202217 -18.171778 -0.435826 -1.628833 -53.777508 -10.214663 11.536442 58.852310 1.777514 -10.061789 -12.664400 0.278075 -3.183177 
7.085590 44.966042 -13.817562 9.677735 -17.265625 89.479523 10.370376 -8.712459 -6.345483 -5.683594 3.330078 6.279297 -8.875838 5.861958 13.631416 -9.541018 -2.148437 16.396486 2.000000 -2.000000 0.000000 -73.730469 10.761720 25.605471 -10.924533 -1.128253 2.496982 6.246690 0.256062 -19.396456 -2.000000 2.000000 0.000000 97.216797 46.894531 12.285157 -2.442952 1.025140 2.422113 44.801575 13.364780 109.397850 -44.463017 -8.132226 -3.862839 44.995533 -2.743887 1.463508 -18.430105 -0.346249 -1.969256 -54.834740 -11.533109 11.771570 59.942230 1.689178 -6.751522 -13.263629 -0.154838 -1.981413 
7.190794 44.811249 -13.765715 9.511720 -16.835938 89.391708 10.370376 -8.712459 -6.345483 -3.984376 3.261719 6.455079 -8.911690 5.369532 12.496359 -10.878907 -2.646484 15.371093 2.000000 -2.000000 0.000000 -73.369141 10.507813 26.289063 -11.559312 -1.118506 2.496393 6.606432 0.404590 -20.062246 -2.000000 2.000000 0.000000 97.714844 47.265625 11.393892 -2.442952 1.025140 2.422113 46.311584 12.303439 110.625000 -44.522182 -7.937552 -3.614056 46.039410 -2.675383 0.746200 -18.982468 -0.387163 -1.742422 -54.665577 -11.308388 11.663158 60.323780 1.659553 -8.691287 -12.508600 -0.258549 0.205970 
7.090499 44.632305 -13.822973 9.492188 -17.910156 89.306641 10.370376 -8.712459 -6.345483 -3.740236 3.515625 6.435547 -8.987893 4.964396 11.556945 -10.996093 -3.320312 14.589281 2.000000 -2.000000 0.000000 -73.476563 10.136718 27.306408 -11.735093 -1.118506 2.496393 6.974710 0.729090 -21.353573 -2.000000 2.000000 0.000000 98.417969 46.279301 15.036356 -2.442952 1.025140 2.422113 44.448120 15.617996 112.372986 -46.300579 -7.908683 -3.544983 47.045052 -2.636305 1.378091 -19.287525 -0.385387 -2.023585 -55.889061 -11.347546 11.049646 60.483696 1.650698 -9.258250 -12.610057 -0.561241 1.468219 
7.028961 44.362118 -13.874822 10.019531 -18.945311 89.225349 10.370376 -8.712459 -6.345483 -3.652342 3.037110 6.504425 -9.107103 4.423419 10.371529 -10.693359 -3.798828 13.369143 2.000000 -2.000000 0.000000 -73.964844 9.345703 26.700806 -9.166892 -1.167833 2.489592 6.294446 0.432110 -19.262598 -2.000000 2.000000 0.000000 99.130859 46.191406 17.343750 -2.442952 1.025140 2.422113 43.596195 17.999151 112.236076 -48.070137 -8.719480 -3.655428 48.425053 -2.548537 2.537498 -19.968710 -0.372606 -2.459915 -57.414715 -11.865092 10.611631 61.410233 1.601326 -9.899746 -14.273584 -0.969885 0.878959 
6.918598 44.238918 -13.907540 10.439453 -20.107424 88.648987 10.370376 -8.712459 -6.345483 -3.515625 2.685547 6.562957 -9.184680 3.835927 9.144089 -10.673829 -4.199219 12.099609 2.000000 -2.000000 0.000000 -73.603516 10.683595 27.539063 -12.262229 -1.108170 2.505550 6.126504 2.667554 -20.591351 -2.000000 2.000000 0.000000 99.892578 45.693359 20.732422 -2.442952 1.025140 2.422113 43.882107 21.389084 110.507088 -49.621216 -8.904354 -3.949815 49.085941 -2.489667 3.620692 -20.309837 -0.481168 -3.111800 -59.281174 -11.757707 10.650166 61.593533 1.551772 -11.750777 -14.057158 -0.502829 1.268896 
6.809114 44.041348 -13.929187 9.648438 -20.966799 89.654709 10.370376 -8.712459 -6.345483 -2.802734 3.759766 6.494781 -9.240368 3.311065 7.878112 -11.191406 -5.019531 11.044923 2.000000 -2.000000 0.000000 -73.271484 10.371094 29.786917 -13.238814 -1.088674 2.504373 6.203329 4.611359 -22.227753 -2.000000 2.000000 0.000000 98.691406 45.683594 23.798828 -2.442952 1.025140 2.422113 44.602581 26.501314 107.448906 -51.325974 -8.925178 -4.560845 50.158852 -2.438488 2.954626 -20.417843 -0.770485 -2.917269 -60.198330 -11.777121 9.585532 62.092484 1.502847 -12.939376 -14.591210 -0.720864 1.547706 
6.571648 43.898388 -13.579468 8.740234 -22.958984 88.570412 10.370376 -8.712459 -6.345483 -3.408204 4.218750 6.376954 -9.322420 3.002046 7.134034 -11.738282 -4.873046 10.175781 2.000000 -2.000000 0.000000 -74.091797 10.009766 26.720449 -11.119846 -1.128253 2.496982 7.459237 2.548682 -20.377377 -2.000000 2.000000 0.000000 101.289063 46.708984 24.208984 -2.442952 1.025140 2.422113 46.511555 25.844078 106.992592 -54.146294 -6.630337 -3.822454 51.389118 -2.352914 2.293907 -20.845795 -0.650090 -3.166498 -62.586670 -9.140632 9.870577 62.248970 1.497986 -14.828081 -13.717498 -0.867929 1.942490 
6.359098 43.814827 -13.472121 7.500000 -25.087889 88.623047 10.370376 -8.712459 -6.345483 -4.023438 5.556641 6.123893 -9.410463 2.501432 5.904898 -11.357424 -4.853516 8.750002 2.000000 -2.000000 0.000000 -74.169922 10.576172 26.505699 -12.086666 -1.108758 2.495805 7.826127 2.912565 -20.799488 -2.000000 2.000000 0.000000 102.587891 46.279301 26.628151 -2.442952 1.025140 2.422113 45.899750 28.011227 110.120750 -56.969902 -5.234135 -4.282656 52.156071 -2.324115 1.079868 -20.910067 -1.096997 -3.011926 -64.787102 -7.832407 9.380733 61.999977 1.538665 -16.370882 -12.778271 -0.757458 2.622003 
6.254021 43.551945 -13.616087 8.623047 -25.761719 87.212555 10.370376 -8.712459 -6.345483 -3.632812 4.589844 6.299609 -9.406589 2.237065 5.460403 -11.533204 -5.009766 8.261719 2.000000 -2.000000 0.000000 -73.916016 10.605469 27.228357 -12.975129 -1.098422 2.504961 7.677054 3.380275 -22.011555 -2.000000 2.000000 0.000000 103.554688 46.191406 28.630095 -2.442952 1.025140 2.422113 45.491882 29.318966 112.045959 -58.410172 -5.955599 -4.135537 53.394169 -2.235822 3.678509 -21.425653 -0.649206 -3.941288 -66.643044 -8.184269 9.786487 63.136227 1.466772 -15.687830 -12.655904 -0.761972 3.175556 
